<?xml version="1.0" encoding="utf-8"?>
<!-- Generator: Adobe Illustrator 16.0.0, SVG Export Plug-In . SVG Version: 6.00 Build 0)  -->
<!DOCTYPE svg PUBLIC "-//W3C//DTD SVG 1.1//EN" "http://www.w3.org/Graphics/SVG/1.1/DTD/svg11.dtd">
<svg version="1.1" id="图层_1" xmlns="http://www.w3.org/2000/svg" xmlns:xlink="http://www.w3.org/1999/xlink" x="0px" y="0px"
	 width="20px" height="20px" viewBox="0 0 20 20" enable-background="new 0 0 20 20" xml:space="preserve">
<path fill="#FFFFFF" stroke="#000000" stroke-miterlimit="10" d="M5.245,10.179C5.57,9.892,5.291,4.209,5.384,3.695
	s0.861-1.069,1.244-1.208s1.629,0.72,1.87,1.139S8.223,9.03,8.5,9s0.184-6.397,0.323-6.723s1-0.953,1.441-0.953
	s1.194,1.019,1.283,1.579s-0.585,5.788-0.167,5.812s0.832-3.617,1.046-4.043c0.316-0.632,0.93-1.464,0.93-1.464
	s0.581-0.65,1.324-0.534c0.464,0.073,0.953,1.255,0.953,1.255l0.395,1.557l-0.465,1.371l-0.542,1.141c0,0-0.783,1.462-0.597,1.485
	s1.796-4.148,2.45-4.13c0.705,0.02,1.314,0.713,1.361,1.248s-0.279,1.487-0.279,1.487l-0.65,2.138l-0.767,1.929l-0.744,1.742
	l-0.557,1.232l-0.71,1.742l-0.337,0.907c0,0-0.44,0.584-0.627,0.722s-6.089,0.188-6.391,0s-0.857-1.638-1.139-1.884
	s-0.813-1.139-0.813-1.139l-1.069-1.511L3.222,12.5c0,0-0.466-0.74-0.58-1.136c-0.114-0.395-0.279-1.391-0.279-1.391l0.186-1.027
	c0,0,0.279-0.395,0.674-0.488s1.115,0.813,1.115,0.813S4.919,10.466,5.245,10.179z"/>
</svg>
