<?xml version="1.0" standalone="no"?><!DOCTYPE svg PUBLIC "-//W3C//DTD SVG 1.1//EN" "http://www.w3.org/Graphics/SVG/1.1/DTD/svg11.dtd"><svg width="32.09375" height="32" viewBox="0 0 32.09375 32" version="1.1" xmlns="http://www.w3.org/2000/svg" xmlns:xlink="http://www.w3.org/1999/xlink"><g class="transform-group"><g transform="scale(0.03125, 0.03125)"><path d="M513.066667 1024c-136.533333 0-264.533333-51.2-362.666667-149.333333-200.533333-200.533333-200.533333-524.8 0-725.333333C248.533333 51.2 376.533333 0 513.066667 0s264.533333 51.2 362.666667 149.333333c200.533333 200.533333 200.533333 524.8 0 725.333333C777.6 972.8 649.6 1024 513.066667 1024zM513.066667 85.333333C397.866667 85.333333 291.2 128 210.133333 209.066667 43.733333 375.466667 43.733333 648.533333 210.133333 814.933333 291.2 896 397.866667 938.666667 513.066667 938.666667s221.866667-42.666667 302.933333-123.733333c166.4-166.4 166.4-435.2 0-601.6C734.933333 128 628.266667 85.333333 513.066667 85.333333zM726.4 554.666667 299.733333 554.666667c-25.6 0-42.666667-17.066667-42.666667-42.666667s17.066667-42.666667 42.666667-42.666667l426.666667 0c25.6 0 42.666667 17.066667 42.666667 42.666667S752 554.666667 726.4 554.666667z" fill="#272636"></path></g></g></svg>