<?xml version="1.0" standalone="no"?><!DOCTYPE svg PUBLIC "-//W3C//DTD SVG 1.1//EN" "http://www.w3.org/Graphics/SVG/1.1/DTD/svg11.dtd"><svg class="icon" style="" viewBox="0 0 1024 1024" version="1.1" xmlns="http://www.w3.org/2000/svg" p-id="3575" xmlns:xlink="http://www.w3.org/1999/xlink" width="200" height="200"><defs><style type="text/css"><![CDATA[

]]></style></defs><path d="M724.992 0.903529l-724.088471 724.088471 298.164706 298.104471 724.028235-724.028235-298.104471-298.164706zM86.076235 724.992l41.923765-41.923765 85.172706 85.172706 42.586353-42.586353-85.172706-85.172706 43.309176-43.309176 42.586353 42.586353 42.586353-42.586353-42.586353-42.586353 42.586353-42.586353 85.172706 85.172706 42.586353-42.586353-85.172706-85.172706 41.923765-41.923765 42.586353 42.586353 42.586353-42.586353-42.586353-42.586353 42.586353-42.586353 85.172706 85.172706 42.586353-42.586353-85.172706-85.172706 43.248941-43.248941 42.586353 42.586353 42.586353-42.586353-42.586353-42.586353 42.586353-42.586353 85.232941 85.172706 42.586353-42.586353-85.232941-85.172706 42.646588-42.646588 212.931765 212.992-638.855529 638.855529-212.992-212.931765z" p-id="3576"></path></svg>