<?xml version="1.0" standalone="no"?><!DOCTYPE svg PUBLIC "-//W3C//DTD SVG 1.1//EN" "http://www.w3.org/Graphics/SVG/1.1/DTD/svg11.dtd"><svg class="icon" style="" viewBox="0 0 1024 1024" version="1.1" xmlns="http://www.w3.org/2000/svg" p-id="2085" xmlns:xlink="http://www.w3.org/1999/xlink" width="200" height="200"><defs><style type="text/css"><![CDATA[

]]></style></defs><path d="M150.760004 149.271671C228.458002 71.572469 328.650788 21.176241 439.344997 5.2766c135.313125-19.420586 270.151813 15.048305 379.578048 97.015026 109.451522 81.992008 180.432752 201.688468 199.8714 337.025675 40.132024 279.470756-154.62052 539.387265-433.951594 579.54578-117.131613 16.806369-237.237484-7.736686-338.210562-69.040135-17.268764-10.500218-22.751274-32.998619-12.278752-50.2433 10.572467-17.138715 32.963699-22.777765 50.237279-12.28116 86.490725 52.569724 189.428982 73.591834 289.8626 59.160056 239.379673-34.33523 406.30664-257.173447 371.944919-496.746989-16.652237-115.994892-77.494495-218.574311-171.32574-288.828232-93.808366-70.281617-209.364945-99.785783-325.332142-83.109463C210.100683 112.116314 43.245965 334.981023 77.661873 574.502786c9.020313 62.702675 30.79261 121.299187 64.797902 174.121784 10.907221 17.0183 5.944905 39.719-10.939734 50.549155-16.985788 10.937325-39.637117 6.023175-50.546747-10.938529C41.279582 726.465739 15.834617 658.101135 5.263354 584.895834c-19.422994-135.315533 15.020609-270.190346 97.066805-379.641868C117.250824 185.266224 133.435849 166.59703 150.760004 149.271671L150.760004 149.271671zM150.760004 149.271671" p-id="2086"></path><path d="M567.228495 506.530735 725.345877 350.130477c14.367958-14.183723 14.477536-37.334776 0.290201-51.70153-14.189744-14.375183-37.373309-14.485965-51.707551-0.297426l-158.334129 156.588107L359.674596 298.315756c-14.300526-14.294505-37.411842-14.373979-51.707551-0.071045-14.299321 14.259584-14.334242 37.404617-0.071045 51.706346l155.700646 156.178694-156.985477 155.305683c-14.366754 14.228276-14.479944 37.334776-0.288997 51.707551 7.163509 7.244187 16.565538 10.859055 26.001284 10.859055 9.284023 0 18.574066-3.542619 25.703858-10.56765l157.203429-155.48149 158.481036 158.996413c7.129792 7.164713 16.492085 10.748273 25.889298 10.748273 9.361088 0 18.686052-3.58356 25.817049-10.67482 14.294505-14.261993 14.333038-37.373309 0.073453-51.707551L567.228495 506.530735 567.228495 506.530735z" p-id="2087"></path><path d="M567.228495 506.530735" p-id="2088"></path></svg>